<?xml version="1.0" standalone="no"?>
<!DOCTYPE svg PUBLIC "-//W3C//DTD SVG 20010904//EN"
 "http://www.w3.org/TR/2001/REC-SVG-20010904/DTD/svg10.dtd">
<svg version="1.0" xmlns="http://www.w3.org/2000/svg"
 width="221.000000pt" height="59.000000pt" viewBox="0 0 221.000000 59.000000"
 preserveAspectRatio="xMidYMid meet">

<g transform="translate(0.000000,59.000000) scale(0.100000,-0.100000)"
fill="#000000" stroke="none">
<path d="M738 581 c-31 -3 -59 -9 -63 -13 -4 -4 -2 -23 5 -44 l12 -37 87 7
c88 8 105 16 95 51 -14 47 -20 48 -136 36z"/>
<path d="M103 559 l-33 -21 0 -154 c0 -149 1 -154 21 -154 31 0 59 19 59 40 0
24 28 40 70 40 45 0 70 -16 70 -46 0 -35 -32 -44 -166 -44 -64 0 -114 -3 -112
-7 2 -5 10 -20 17 -35 l14 -28 128 0 c126 0 127 0 157 28 36 33 47 68 38 116
-12 65 -88 105 -177 93 l-39 -5 0 99 c0 54 -3 99 -7 99 -5 0 -23 -10 -40 -21z"/>
<path d="M423 559 l-33 -21 0 -149 c0 -166 8 -197 60 -224 36 -19 99 -19 124
0 16 12 21 12 40 0 11 -9 43 -15 71 -15 41 0 57 5 85 29 l35 29 5 111 c3 61 4
111 2 111 -1 0 -18 -10 -37 -22 -33 -22 -35 -26 -35 -81 0 -76 -12 -97 -53
-97 -48 0 -57 15 -57 97 0 40 -2 73 -5 73 -3 0 -21 -10 -40 -22 -32 -22 -34
-27 -37 -83 -3 -59 -4 -60 -34 -63 -49 -5 -56 20 -52 196 2 84 1 152 -2 152
-3 0 -20 -10 -37 -21z"/>
<path d="M1103 559 l-33 -21 0 -194 0 -194 35 0 35 0 0 215 c0 118 -1 215 -2
215 -2 0 -18 -10 -35 -21z"/>
<path d="M1693 559 l-33 -21 0 -194 0 -194 40 0 41 0 -1 215 c-1 118 -4 215
-8 215 -4 0 -22 -10 -39 -21z"/>
<path d="M1248 485 l-38 -26 0 -75 c0 -150 74 -234 205 -234 67 0 109 17 152
60 44 43 55 87 51 200 l-3 95 -30 0 -30 0 -5 -90 c-8 -134 -48 -188 -135 -188
-91 0 -118 39 -125 180 l-5 103 -37 -25z"/>
<path d="M1403 503 c-31 -6 -41 -23 -36 -65 6 -43 25 -52 73 -32 29 13 32 17
26 45 -3 17 -6 38 -6 45 0 14 -14 15 -57 7z"/>
<path d="M1815 477 c-56 -56 -58 -111 -7 -168 19 -22 39 -32 70 -36 34 -5 40
-8 31 -19 -6 -8 -32 -20 -58 -28 -41 -12 -46 -16 -46 -42 0 -25 4 -29 32 -32
39 -4 106 29 130 64 10 14 29 37 42 52 12 15 29 39 37 55 14 26 14 27 -11 27
-24 0 -25 2 -25 68 0 78 -8 95 -41 90 -23 -3 -24 -7 -27 -81 l-3 -78 -36 3
c-63 5 -72 64 -12 78 19 5 25 13 27 43 3 37 3 37 -33 37 -29 0 -45 -8 -70 -33z"/>
<path d="M2168 485 l-38 -26 0 -84 c0 -74 -3 -87 -24 -111 -13 -15 -41 -33
-62 -39 -34 -9 -39 -14 -39 -40 0 -27 4 -30 35 -33 51 -4 121 43 149 101 19
39 21 59 19 151 l-3 106 -37 -25z"/>
<path d="M983 477 c-30 -21 -31 -24 -35 -108 -3 -75 -6 -91 -26 -112 -13 -14
-39 -28 -57 -31 -40 -8 -59 -28 -50 -56 8 -25 61 -28 104 -6 41 22 88 80 100
123 12 43 15 213 4 212 -5 0 -22 -10 -40 -22z"/>
<path d="M450 50 l0 -40 43 0 c39 0 44 3 65 40 l23 40 -66 0 -65 0 0 -40z"/>
<path d="M1488 60 c6 -39 12 -39 12 0 0 17 -4 30 -8 30 -5 0 -7 -13 -4 -30z"/>
<path d="M1281 68 c0 -10 -5 -18 -11 -18 -5 0 -10 -7 -10 -15 0 -18 -26 -20
-33 -2 -4 9 -6 9 -6 -1 -1 -19 30 -27 43 -11 8 11 33 13 105 11 51 -2 97 0
102 5 5 5 -33 7 -85 5 -92 -4 -94 -3 -99 20 -3 14 -5 16 -6 6z"/>
<path d="M1584 55 c1 -17 9 -20 64 -23 34 -2 62 1 62 5 0 5 -27 7 -59 5 -51
-3 -60 -1 -64 15 -3 15 -4 15 -3 -2z"/>
<path d="M1762 60 c0 -14 2 -19 5 -12 2 6 2 18 0 25 -3 6 -5 1 -5 -13z"/>
<path d="M1165 51 c-3 -5 0 -13 6 -17 8 -4 7 -9 -2 -15 -10 -6 -10 -9 -2 -9
18 0 27 21 13 30 -10 6 -9 9 1 13 9 3 10 6 2 6 -6 1 -14 -3 -18 -8z"/>
<path d="M1536 45 c-4 -10 1 -15 14 -15 11 0 20 7 20 15 0 8 -6 15 -14 15 -8
0 -16 -7 -20 -15z"/>
<path d="M880 40 l-45 -7 47 -1 c26 -1 50 3 53 8 3 6 3 9 -2 8 -4 0 -28 -4
-53 -8z"/>
<path d="M1065 43 c-39 -2 -73 -9 -78 -16 -7 -9 -10 -9 -14 1 -2 6 -10 12 -16
12 -6 0 -3 -8 6 -17 14 -15 21 -15 37 -5 11 6 44 12 74 12 30 0 58 5 61 10 3
6 5 9 3 8 -2 -1 -34 -4 -73 -5z"/>
<path d="M1740 38 c0 -9 -6 -19 -12 -21 -10 -4 -10 -6 0 -6 14 -1 28 26 18 36
-3 4 -6 -1 -6 -9z"/>
<path d="M717 33 c18 -2 50 -2 70 0 21 2 7 4 -32 4 -38 0 -55 -2 -38 -4z"/>
<path d="M645 20 c-19 -8 -19 -9 2 -9 12 -1 25 4 28 9 7 12 -2 12 -30 0z"/>
</g>
</svg>
