<?xml version="1.0" encoding="UTF-8"?>
<!DOCTYPE svg PUBLIC "-//W3C//DTD SVG 1.1//EN" "http://www.w3.org/Graphics/SVG/1.1/DTD/svg11.dtd">
<svg xmlns="http://www.w3.org/2000/svg" version="1.1" width="300px" height="300px" style="shape-rendering:geometricPrecision; text-rendering:geometricPrecision; image-rendering:optimizeQuality; fill-rule:evenodd; clip-rule:evenodd" xmlns:xlink="http://www.w3.org/1999/xlink">
<g><path style="opacity:0.989" fill="#febe01" d="M -0.5,-0.5 C 99.5,-0.5 199.5,-0.5 299.5,-0.5C 299.5,67.5 299.5,135.5 299.5,203.5C 199.5,203.5 99.5,203.5 -0.5,203.5C -0.5,135.5 -0.5,67.5 -0.5,-0.5 Z"/></g>
<g><path style="opacity:1" fill="#075d88" d="M 244.5,148.5 C 240.605,149.462 236.939,150.796 233.5,152.5C 179.333,166.551 125,167.051 70.5,154C 51.8856,149.249 34.8856,141.249 19.5,130C 3.04491,115.749 1.21157,99.9156 14,82.5C 26.0024,71.4086 39.8357,63.2419 55.5,58C 98.5801,44.6536 142.58,40.6536 187.5,46C 211.646,48.8699 234.98,54.8699 257.5,64C 269.403,69.2486 279.569,76.7486 288,86.5C 297.54,103.294 294.706,117.794 279.5,130C 268.693,137.738 257.026,143.904 244.5,148.5 Z"/></g>
<g><path style="opacity:1" fill="#f8fafc" d="M 125.5,102.5 C 126.461,100.735 126.795,98.7354 126.5,96.5C 129.167,96.5 131.833,96.5 134.5,96.5C 134.19,99.7131 134.523,102.713 135.5,105.5C 137.67,106.768 139.837,106.768 142,105.5C 142.499,101.848 142.665,98.1817 142.5,94.5C 145.5,94.5 148.5,94.5 151.5,94.5C 149.307,104.991 153.307,108.825 163.5,106C 164.658,104.991 165.325,103.658 165.5,102C 164.795,98.1958 164.462,94.3625 164.5,90.5C 167.5,90.5 170.5,90.5 173.5,90.5C 178.758,114.418 169.924,122.751 147,115.5C 141.333,119.5 135.667,119.5 130,115.5C 123.487,119.829 117.321,119.496 111.5,114.5C 110.183,116.159 108.517,117.326 106.5,118C 102.245,118.796 98.0785,118.629 94,117.5C 92.2746,128.225 86.108,134.725 75.5,137C 66.9615,139.2 59.7948,137.033 54,130.5C 52.1303,127.078 51.297,123.411 51.5,119.5C 51.8596,113.704 52.8596,108.037 54.5,102.5C 57.1178,102.779 59.6178,103.446 62,104.5C 61.6156,110.14 61.6156,115.806 62,121.5C 62.8333,122.333 63.6667,123.167 64.5,124C 68.8333,124.667 73.1667,124.667 77.5,124C 80.0336,123.484 82.2002,122.317 84,120.5C 84.4998,104.494 84.3332,88.4939 83.5,72.5C 86.8333,72.5 90.1667,72.5 93.5,72.5C 93.0455,83.6029 93.5455,94.6029 95,105.5C 104.551,108.817 109.051,105.484 108.5,95.5C 111.167,95.5 113.833,95.5 116.5,95.5C 116.335,98.5184 116.502,101.518 117,104.5C 118.808,106.396 120.975,106.896 123.5,106C 124.823,105.184 125.489,104.017 125.5,102.5 Z"/></g>
<g><path style="opacity:1" fill="#f8fafb" d="M 179.5,72.5 C 182.833,72.5 186.167,72.5 189.5,72.5C 189.5,87.8333 189.5,103.167 189.5,118.5C 186.5,118.5 183.5,118.5 180.5,118.5C 180.477,103.158 180.144,87.8249 179.5,72.5 Z"/></g>
<g><path style="opacity:1" fill="#fbfdfd" d="M 240.5,72.5 C 240.833,72.5 241.167,72.5 241.5,72.5C 243.167,72.5 244.833,72.5 246.5,72.5C 246.5,87.8333 246.5,103.167 246.5,118.5C 243.5,118.5 240.5,118.5 237.5,118.5C 237.5,114.5 237.5,110.5 237.5,106.5C 237.5,95.5 237.5,84.5 237.5,73.5C 238.791,73.7373 239.791,73.404 240.5,72.5 Z"/></g>
<g><path style="opacity:1" fill="#337fa1" d="M 241.5,72.5 C 243.265,71.5386 245.265,71.2053 247.5,71.5C 247.83,87.3422 247.496,103.009 246.5,118.5C 246.5,103.167 246.5,87.8333 246.5,72.5C 244.833,72.5 243.167,72.5 241.5,72.5 Z"/></g>
<g><path style="opacity:1" fill="#eaf1f5" d="M 166.5,72.5 C 169.608,73.7727 171.941,75.9394 173.5,79C 169.5,86.3333 165.5,86.3333 161.5,79C 162.985,76.683 164.652,74.5164 166.5,72.5 Z"/></g>
<g><path style="opacity:1" fill="#f7fafb" d="M 226.5,89.5 C 228.167,89.5 229.833,89.5 231.5,89.5C 231.666,95.8421 231.5,102.175 231,108.5C 229.833,113.667 226.667,116.833 221.5,118C 217.442,118.767 213.442,118.6 209.5,117.5C 206.507,129.494 198.841,135.494 186.5,135.5C 185.886,131.865 185.552,128.198 185.5,124.5C 190.12,123.906 194.287,122.239 198,119.5C 198.648,111.758 198.148,104.091 196.5,96.5C 199.789,95.6261 203.123,94.9595 206.5,94.5C 205.96,104.799 210.626,108.632 220.5,106C 221.72,104.475 222.387,102.641 222.5,100.5C 222.164,97.1587 221.831,93.8254 221.5,90.5C 223.415,90.7845 225.081,90.4511 226.5,89.5 Z"/></g>
<g><path style="opacity:1" fill="#9abdcf" d="M 135.5,105.5 C 134.523,102.713 134.19,99.7131 134.5,96.5C 131.833,96.5 129.167,96.5 126.5,96.5C 126.795,98.7354 126.461,100.735 125.5,102.5C 125.5,100.167 125.5,97.8333 125.5,95.5C 128.833,95.5 132.167,95.5 135.5,95.5C 135.5,98.8333 135.5,102.167 135.5,105.5 Z"/></g>
<g><path style="opacity:1" fill="#639bb5" d="M 240.5,72.5 C 239.791,73.404 238.791,73.7373 237.5,73.5C 237.5,84.5 237.5,95.5 237.5,106.5C 236.505,95.3456 236.172,84.0123 236.5,72.5C 237.833,72.5 239.167,72.5 240.5,72.5 Z"/></g>
<g><path style="opacity:1" fill="#ebf2f5" d="M 216.5,123.5 C 219.075,124.728 221.408,126.395 223.5,128.5C 225.5,126.833 227.5,125.167 229.5,123.5C 231.833,125.167 233.833,127.167 235.5,129.5C 233.833,131.833 231.833,133.833 229.5,135.5C 227.5,133.833 225.5,132.167 223.5,130.5C 221.5,132.167 219.5,133.833 217.5,135.5C 215.167,133.833 213.167,131.833 211.5,129.5C 213.19,127.481 214.856,125.481 216.5,123.5 Z"/></g>
<g><path style="opacity:1" fill="#c5a82a" d="M 244.5,148.5 C 241.374,150.99 237.708,152.323 233.5,152.5C 236.939,150.796 240.605,149.462 244.5,148.5 Z"/></g>
<g><path style="opacity:0.981" fill="#fcbe02" d="M -0.5,209.5 C 99.5,209.5 199.5,209.5 299.5,209.5C 299.5,239.5 299.5,269.5 299.5,299.5C 199.5,299.5 99.5,299.5 -0.5,299.5C -0.5,269.5 -0.5,239.5 -0.5,209.5 Z"/></g>
<g><path style="opacity:1" fill="#226874" d="M 56.5,225.5 C 65.9856,224.506 75.6522,224.173 85.5,224.5C 85.5,227.167 85.5,229.833 85.5,232.5C 84.5318,230.393 84.1984,228.059 84.5,225.5C 75.1667,225.5 65.8333,225.5 56.5,225.5 Z"/></g>
<g><path style="opacity:1" fill="#1e6875" d="M 103.5,225.5 C 112.342,224.178 121.342,224.178 130.5,225.5C 130.376,226.107 130.043,226.44 129.5,226.5C 121.016,225.507 112.349,225.174 103.5,225.5 Z"/></g>
<g><path style="opacity:1" fill="#1d6775" d="M 136.5,225.5 C 154.338,224.173 172.338,224.173 190.5,225.5C 190.376,226.107 190.043,226.44 189.5,226.5C 172.008,225.503 154.341,225.17 136.5,225.5 Z"/></g>
<g><path style="opacity:1" fill="#0b5c86" d="M 56.5,225.5 C 65.8333,225.5 75.1667,225.5 84.5,225.5C 84.1984,228.059 84.5318,230.393 85.5,232.5C 86.3985,241.152 87.2319,249.819 88,258.5C 93.1806,247.474 98.3473,236.474 103.5,225.5C 112.349,225.174 121.016,225.507 129.5,226.5C 125.962,245.523 122.295,264.523 118.5,283.5C 112.5,283.5 106.5,283.5 100.5,283.5C 100.5,282.5 100.5,281.5 100.5,280.5C 103.355,268.417 106.189,256.417 109,244.5C 102.254,257.659 95.2544,270.659 88,283.5C 82.9283,284.471 77.7616,284.805 72.5,284.5C 72.0544,273.817 71.3878,263.15 70.5,252.5C 70.7989,250.396 70.4656,248.396 69.5,246.5C 68.7025,246.957 68.3691,247.624 68.5,248.5C 64.761,260.05 61.4276,271.717 58.5,283.5C 51.7453,284.123 45.412,283.456 39.5,281.5C 44.3922,262.498 50.0589,243.832 56.5,225.5 Z"/></g>
<g><path style="opacity:1" fill="#085c86" d="M 136.5,225.5 C 154.341,225.17 172.008,225.503 189.5,226.5C 188.823,231.563 187.823,236.563 186.5,241.5C 181.208,242.495 175.875,242.828 170.5,242.5C 168.959,252.204 167.292,261.87 165.5,271.5C 158.833,271.5 152.167,271.5 145.5,271.5C 146.78,261.765 148.447,252.098 150.5,242.5C 144.833,242.5 139.167,242.5 133.5,242.5C 133.883,236.6 134.883,230.933 136.5,225.5 Z"/></g>
<g><path style="opacity:1" fill="#0c5d85" d="M 196.5,224.5 C 202.868,224.17 209.202,224.504 215.5,225.5C 221.799,237.626 228.299,249.626 235,261.5C 238.611,249.276 241.778,236.942 244.5,224.5C 250.868,224.17 257.202,224.504 263.5,225.5C 258.187,244.752 253.187,264.086 248.5,283.5C 241.833,284.833 235.167,284.833 228.5,283.5C 222.922,272.01 217.089,260.677 211,249.5C 207.798,261.01 205.298,272.676 203.5,284.5C 197.5,284.5 191.5,284.5 185.5,284.5C 189.167,264.5 192.833,244.5 196.5,224.5 Z"/></g>
<g><path style="opacity:1" fill="#878f40" d="M 70.5,252.5 C 69.8333,251.167 69.1667,249.833 68.5,248.5C 68.3691,247.624 68.7025,246.957 69.5,246.5C 70.4656,248.396 70.7989,250.396 70.5,252.5 Z"/></g>
<g><path style="opacity:1" fill="#c72300" d="M 143.5,275.5 C 150.532,275.17 157.532,275.503 164.5,276.5C 163.885,279.039 163.218,281.539 162.5,284C 155.842,284.5 149.175,284.666 142.5,284.5C 142.704,281.482 143.037,278.482 143.5,275.5 Z"/></g>
<g><path style="opacity:1" fill="#457761" d="M 39.5,281.5 C 45.412,283.456 51.7453,284.123 58.5,283.5C 52.021,284.491 45.3543,284.824 38.5,284.5C 38.2627,283.209 38.596,282.209 39.5,281.5 Z"/></g>
<g><path style="opacity:1" fill="#457761" d="M 100.5,280.5 C 100.5,281.5 100.5,282.5 100.5,283.5C 106.5,283.5 112.5,283.5 118.5,283.5C 112.355,284.49 106.022,284.823 99.5,284.5C 99.2322,282.901 99.5655,281.568 100.5,280.5 Z"/></g>
</svg>
